<svg xmlns="http://www.w3.org/2000/svg" viewBox="0 0 159.26 110.37"><defs><style>.cls-1{fill:#fff;}.cls-2{fill:#dbcec8;}.cls-3,.cls-4{fill:none;stroke:#3e3127;stroke-miterlimit:10;}.cls-3{stroke-linecap:round;stroke-width:3px;}.cls-4{stroke-width:5px;}</style></defs><title>Asset 31</title><g id="Layer_2" data-name="Layer 2"><g id="Layer_1-2" data-name="Layer 1"><path class="cls-1" d="M156.17,26V84.71a8,8,0,0,1-8,8.05H133.27l-7.65,12a1,1,0,0,1-1.77,0l-7.15-12H52a8,8,0,0,1-8-8V26a8,8,0,0,1,8-8h96.14A8,8,0,0,1,156.17,26Z"/><path class="cls-2" d="M120.45,63.56V18.9l-6.59-.73-3.36,57.4-4.24,2.19-3.5.59-7.41-.22,1.88.4L84.51,75.88l-31.78,1A3.74,3.74,0,0,1,49,73.17v-63a7.79,7.79,0,0,1,.41-2.52,8,8,0,0,0-5.71,7.69V74.05a8,8,0,0,0,8,8H67.44L90.83,82l8.18.08h9.68c3.8,0,9.87,0,11.76-3.33S120.45,69.08,120.45,63.56Z"/><circle class="cls-2" cx="54.48" cy="75.77" r="5.18"/><circle class="cls-2" cx="63.71" cy="71.43" r="2.31"/><circle class="cls-2" cx="111.22" cy="74.88" r="1.79"/><line class="cls-3" x1="146.2" y1="39.2" x2="61.11" y2="39.2"/><line class="cls-3" x1="146.2" y1="52.81" x2="114.11" y2="52.81"/><line class="cls-3" x1="146.2" y1="66.42" x2="98.11" y2="66.42"/><path class="cls-4" d="M156.76,22.4V87.17a5,5,0,0,1-5,5H133.85l-8.55,13.44-8-13.44H49.54a5,5,0,0,1-5-5V25.45a8,8,0,0,1,8-8h99.18A5,5,0,0,1,156.76,22.4Z"/><path class="cls-1" d="M3.08,11.12V69.81a8.05,8.05,0,0,0,8.05,8H26l7.64,12a1.05,1.05,0,0,0,1.78,0l7.15-12h64.71a8,8,0,0,0,8-8V11.13a8,8,0,0,0-8-8H11.12A8,8,0,0,0,3.08,11.12Z"/><path class="cls-2" d="M54.43,70.92h50.05a3.74,3.74,0,0,0,3.74-3.74v-63A1.37,1.37,0,0,1,110.41,3a8,8,0,0,1,3.11,6.34V74.72a1.38,1.38,0,0,1-1.38,1.38H89.77L66.38,76l-8.18.08H43.34"/><circle class="cls-2" cx="104.78" cy="66.86" r="5.18"/><circle class="cls-2" cx="95.54" cy="62.53" r="2.31"/><circle class="cls-2" cx="55.18" cy="69.34" r="4.01"/><circle class="cls-2" cx="48.03" cy="65.98" r="1.79"/><line class="cls-3" x1="13.06" y1="24.3" x2="98.15" y2="24.3"/><line class="cls-3" x1="13.06" y1="37.91" x2="45.15" y2="37.91"/><line class="cls-3" x1="13.06" y1="51.52" x2="61.15" y2="51.52"/><path class="cls-4" d="M2.5,3.88v72a1.37,1.37,0,0,0,1.38,1.37H24.65a1.37,1.37,0,0,1,1.16.64L34,90.71l7.61-12.77a1.39,1.39,0,0,1,1.18-.67h70.59a1.37,1.37,0,0,0,1.38-1.37v-72a1.38,1.38,0,0,0-1.38-1.38H3.88A1.38,1.38,0,0,0,2.5,3.88Z"/></g></g></svg>